# xmcd CD database file
#
# Track frame offsets:
#	150
#	14060
#	31795
#	44965
#	67930
#	81580
#	92570
#	106365
#	119472
#	134345
#	148417
#	165220
#	176812
#	187755
#	205087
#
# Disc length: 3007 seconds
#
# Revision: 4
# Processed by: cddbd v1.5.1PL2 Copyright (c) Steve Scherf et al.
# Submitted via: CDex 1.51
#
DISCID=d50bbd0f
DTITLE=Various Artist - Blues' Greatest [CD4/4)
DYEAR=1997
DGENRE=Blues
TTITLE0=Albert King - Callin' On My Darling
TTITLE1=Bobby Bland - You've Got Me Loving You
TTITLE2=Gatemouth Brown - Depression Blues
TTITLE3=John Lee Hooker - Tantalizing With The Blues
TTITLE4=Little Milton - Hard Luck Blues
TTITLE5=Billy Stewart - Billy's Blues, Part II
TTITLE6=T-Bone Walker - Party Girl
TTITLE7=BB King - Rainin' All The Time
TTITLE8=Muddy Waters - She's Nineteen Years Old
TTITLE9=Koko Taylor - I Got What It Takes
TTITLE10=Buddy Guy - Buddy's Groove
TTITLE11=Little Jr. Parker - Stand By Me
TTITLE12=T-Bone Walker - Call It Stormy Monday
TTITLE13=Bobby Bland - It's Too Bad
TTITLE14=BB King - Hummingbird
EXTD=YEAR: 1997
EXTT0=
EXTT1=
EXTT2=
EXTT3=
EXTT4=
EXTT5=
EXTT6=
EXTT7=
EXTT8=
EXTT9=
EXTT10=
EXTT11=
EXTT12=
EXTT13=
EXTT14=
PLAYORDER=
